<?xml version="1.0" encoding="UTF-8" standalone="no"?>
<svg xmlns="http://www.w3.org/2000/svg" viewBox="0 0 45.4 10.67">
  <g style="line-height:1.25;-inkscape-font-specification:'UD Digi Kyokasho NK-B'" aria-label="Edevent" font-weight="400" font-size="10.58" font-family="UD Digi Kyokasho NK-B" letter-spacing="0" word-spacing="0" stroke-width=".26" fill="#fff">
    <path style="-inkscape-font-specification:'UD Digi Kyokasho NK-B'" d="M2.78 5.8v1.92q0 .2.19.2h3.7q.2 0 .34.14.17.18.17.48 0 .4-.28.56-.1.06-.24.06h-4.3q-1.04 0-1.04-1.03V2.46q0-1.02 1.03-1.02H6.5q.19 0 .33.12.19.18.19.5 0 .37-.28.53-.1.07-.24.07H2.97q-.2 0-.2.2v1.73h3.28q.17 0 .3.12.18.17.18.5 0 .36-.25.52-.1.07-.23.07zM12.17 4.24V1.9q0-.2.12-.34.2-.23.55-.23.4 0 .58.28.08.13.08.3v6.82q0 .23-.11.37-.16.2-.45.2-.47 0-.56-.5l-.08-.45q-.2.4-.56.64-.53.34-1.22.34-1.32 0-2.03-1.06-.51-.76-.51-1.84 0-1.05.55-1.82.75-1.05 2.02-1.05 1.07 0 1.62.7zm.01 2.28V6.1q0-.78-.7-1.22-.32-.21-.7-.21-.67 0-1.07.55-.35.48-.35 1.2 0 .63.25 1.07.38.7 1.15.7.5 0 .9-.4.52-.5.52-1.27zM16.17 6.75q.04.63.45 1.02.45.42 1.14.42.78 0 1.33-.57.15-.16.35-.16.23 0 .42.2.17.17.17.42 0 .29-.28.56-.74.7-2.05.7-1.13 0-1.9-.63-1-.82-1-2.28 0-1.08.57-1.85.78-1.07 2.2-1.07 1.18 0 1.94.87.64.73.64 1.64 0 .4-.15.56-.16.17-.53.17zm.03-1.03h2.43q.16 0 .16-.13 0-.28-.23-.57-.36-.44-1-.44-.38 0-.72.2-.54.32-.64.94zM23.52 7.48l1.37-3.51q.16-.4.58-.4.2 0 .38.1.38.2.38.56 0 .13-.06.26L24.34 8.7q-.25.6-.82.6t-.83-.6l-1.83-4.22q-.06-.13-.06-.26 0-.37.38-.57.19-.1.38-.1.42 0 .58.4zM28.23 6.75q.03.63.44 1.02.45.42 1.14.42.78 0 1.33-.57.15-.16.35-.16.23 0 .42.2.18.17.18.42 0 .29-.29.56-.74.7-2.04.7-1.14 0-1.9-.63-1-.82-1-2.28 0-1.08.56-1.85.78-1.07 2.2-1.07 1.18 0 1.94.87.64.73.64 1.64 0 .4-.15.56-.16.17-.53.17zm.02-1.03h2.43q.16 0 .16-.13 0-.28-.23-.57-.36-.44-1-.44-.38 0-.72.2-.54.32-.64.94zM34.73 4.5q.3-.4.7-.62.56-.33 1.19-.33.93 0 1.5.63.49.55.49 1.65V8.7q0 .2-.13.35-.2.22-.55.22-.4 0-.58-.28-.09-.13-.09-.3V5.99q0-.46-.14-.77-.23-.5-.76-.5-.56 0-1.06.59-.4.45-.4.93v2.48q0 .22-.15.37-.2.2-.53.2-.4 0-.59-.28-.08-.12-.08-.3V4.14q0-.2.1-.34.14-.21.44-.21.48 0 .57.51zM41.2 3.7V2.54q0-.21.14-.36.19-.22.53-.22.4 0 .58.29.08.13.08.3V3.7h1.09q.2 0 .31.13.14.17.14.42 0 .33-.23.49-.1.06-.22.06h-1.09v3.9q0 .2-.12.35-.2.22-.55.22-.4 0-.58-.28-.08-.12-.08-.3V4.8h-1.1q-.15 0-.26-.1-.19-.15-.19-.45 0-.34.24-.48.1-.06.22-.06z"/>
  </g>
</svg>
